
<svg width="18px" height="18px" viewBox="0 0 18 18" version="1.1" xmlns="http://www.w3.org/2000/svg" xmlns:xlink="http://www.w3.org/1999/xlink">
    <!-- Generator: Sketch 3.8.3 (29802) - http://www.bohemiancoding.com/sketch -->
    <desc>Created with Sketch.</desc>
    <defs></defs>
    <path d="M16.999827,2.69662924e-05 L0.993040449,2.69662924e-05 C0.444546067,2.69662924e-05 6.74157309e-06,0.444566292 6.74157309e-06,0.993060674 L6.74157309e-06,16.9998472 C6.74157309e-06,17.5482742 0.444546067,17.9929483 0.993040449,17.9929483 L9.61059101,17.9929483 L9.61059101,11.0251281 L7.26573708,11.0251281 L7.26573708,8.30962247 L9.61059101,8.30962247 L9.61059101,6.3070382 C9.61059101,3.98308315 11.0299618,2.71762247 13.1031303,2.71762247 C14.0962315,2.71762247 14.9497146,2.79151011 15.1984112,2.82454382 L15.1984112,5.25326292 L13.7605685,5.25393708 C12.6331079,5.25393708 12.4147483,5.78968989 12.4147483,6.57589213 L12.4147483,8.30962247 L15.1037596,8.30962247 L14.7536697,11.0251281 L12.4147483,11.0251281 L12.4147483,17.9929483 L16.999827,17.9929483 C17.5482539,17.9929483 17.9928607,17.5482742 17.9928607,16.9998472 L17.9928607,0.993060674 C17.9928607,0.444566292 17.5482539,2.69662924e-05 16.999827,2.69662924e-05" id="Fill-1" stroke="none" fill="#FFFFFF" fill-rule="evenodd" opacity="0.9"></path>
</svg>