
<svg width="28px" height="18px" viewBox="145 31 28 18" version="1.1" xmlns="http://www.w3.org/2000/svg" xmlns:xlink="http://www.w3.org/1999/xlink">
    <!-- Generator: Sketch 3.8.3 (29802) - http://www.bohemiancoding.com/sketch -->
    <desc>Created with Sketch.</desc>
    <defs></defs>
    <path d="M169.918239,38.3960396 L169.918239,35.2772277 L167.716981,35.2772277 L167.716981,38.3960396 L164.54717,38.3960396 L164.54717,40.6237624 L167.716981,40.6237624 L167.716981,43.8316832 L169.918239,43.8316832 L169.918239,40.6237624 L173,40.6237624 L173,38.3960396 L169.918239,38.3960396 L169.918239,38.3960396 Z M153.893082,38.2178218 L153.893082,41.7821782 C153.893082,41.7821782 157.309786,41.7775446 158.700981,41.7775446 C157.947623,44.0882277 156.776201,45.3465347 153.893082,45.3465347 C150.975358,45.3465347 148.698113,42.952802 148.698113,40 C148.698113,37.047198 150.975358,34.6534653 153.893082,34.6534653 C155.435723,34.6534653 156.432013,35.202198 157.345887,35.9670198 C158.077409,35.226703 158.016302,35.121198 159.877421,33.342495 C158.297535,31.8871683 156.197711,31 153.893082,31 C148.981547,31 145,35.0294158 145,40 C145,44.970495 148.981547,49 153.893082,49 C161.234453,49 163.02883,42.5306931 162.433962,38.2178218 L153.893082,38.2178218 L153.893082,38.2178218 Z" id="Fill-1" stroke="none" fill="#FFFFFF" fill-rule="evenodd" opacity="0.9"></path>
</svg>