
<svg width="18px" height="18px" viewBox="68 92 18 18" version="1.1" xmlns="http://www.w3.org/2000/svg" xmlns:xlink="http://www.w3.org/1999/xlink">
    <!-- Generator: Sketch 3.8.3 (29802) - http://www.bohemiancoding.com/sketch -->
    <desc>Created with Sketch.</desc>
    <defs></defs>
    <path d="M84,97 C84,97.276125 83.776125,97.5 83.5,97.5 L81,97.5 C80.723875,97.5 80.5,97.276125 80.5,97 L80.5,94.5 C80.5,94.223875 80.723875,94 81,94 L83.5,94 C83.776125,94 84,94.223875 84,94.5 L84,97 L84,97 Z M84,107.5 C84,107.776125 83.776125,108 83.5,108 L70.5,108 C70.223875,108 70,107.776125 70,107.5 L70,99.5 L71.707125,99.5 C71.57225,99.9768125 71.5,100.48 71.5,101 C71.5,104.037563 73.9624375,106.5 77,106.5 C80.0375625,106.5 82.5,104.037563 82.5,101 C82.5,100.48 82.42775,99.9768125 82.292875,99.5 L84,99.5 L84,107.5 L84,107.5 Z M77,97.5 C78.933,97.5 80.5,99.067 80.5,101 C80.5,102.933 78.933,104.5 77,104.5 C75.067,104.5 73.5,102.933 73.5,101 C73.5,99.067 75.067,97.5 77,97.5 L77,97.5 Z M83.5,92 L70.5,92 C69.1193125,92 68,93.1193125 68,94.5 L68,107.5 C68,108.880687 69.1193125,110 70.5,110 L83.5,110 C84.8806875,110 86,108.880687 86,107.5 L86,94.5 C86,93.1193125 84.8806875,92 83.5,92 L83.5,92 Z" id="Fill-1" stroke="none" fill="#FFFFFF" fill-rule="evenodd" opacity="0.9"></path>
</svg>