
<svg width="22px" height="19px" viewBox="0 0 22 19" version="1.1" xmlns="http://www.w3.org/2000/svg" xmlns:xlink="http://www.w3.org/1999/xlink">
    <!-- Generator: Sketch 3.8.3 (29802) - http://www.bohemiancoding.com/sketch -->
    <desc>Created with Sketch.</desc>
    <defs></defs>
    <path d="M21.9510219,2.18930045 C21.143365,2.54938117 20.2754088,2.79274439 19.3644161,2.90219731 C20.2942774,2.3418565 21.0083139,1.45460987 21.3445766,0.397452915 C20.4744526,0.916224215 19.5106277,1.29301345 18.4848175,1.49609865 C17.6632701,0.616197309 16.492854,0.0663497758 15.1975839,0.0663497758 C12.7103796,0.0663497758 10.693927,2.09340807 10.693927,4.59363229 C10.693927,4.94846637 10.7338321,5.29401794 10.8105912,5.62536323 C7.06770073,5.43656502 3.74931387,3.6341435 1.52811679,0.895076233 C1.14046715,1.56373991 0.918379562,2.34145291 0.918379562,3.17114798 C0.918379562,4.7418296 1.71351095,6.12758744 2.92190511,6.93944395 C2.18362044,6.91595516 1.48925547,6.71230493 0.882007299,6.37321076 C0.881686131,6.39209865 0.881686131,6.41106726 0.881686131,6.43011659 C0.881686131,8.62369507 2.43405109,10.4535605 4.49426277,10.869417 C4.11632847,10.9728969 3.71848175,11.0281883 3.30770803,11.0281883 C3.01753285,11.0281883 2.73538686,10.9998565 2.46046715,10.9469865 C3.03351095,12.7456951 4.69667883,14.0546099 6.66736496,14.0911749 C5.12608029,15.3054081 3.18421898,16.0292018 1.07430657,16.0292018 C0.710824818,16.0292018 0.352321168,16.0078117 0,15.966 C1.9930073,17.2505381 4.36025547,18 6.90350365,18 C15.1870657,18 19.7168175,11.1013184 19.7168175,5.11861883 C19.7168175,4.9223139 19.7124818,4.7270583 19.7038102,4.53293274 C20.5836496,3.89461883 21.3472263,3.09721076 21.9510219,2.18930045" id="Fill-1" stroke="none" fill="#FFFFFF" fill-rule="evenodd" opacity="0.9"></path>
</svg>