<?xml version="1.0" encoding="utf-8"?>
<!-- Generator: Adobe Illustrator 19.2.1, SVG Export Plug-In . SVG Version: 6.00 Build 0)  -->
<svg version="1.1" id="Layer_1" xmlns="http://www.w3.org/2000/svg" xmlns:xlink="http://www.w3.org/1999/xlink" x="0px" y="0px"
	 viewBox="0 0 100 104" style="enable-background:new 0 0 100 104;" xml:space="preserve">
	 <style>
	 	#Layer_1{fill: #00527a;}
	 </style>
<path d="M92.9,18.2H77.8v-7c0-1.1-0.9-2-2-2s-2,0.9-2,2v7H26.2v-7c0-1.1-0.9-2-2-2s-2,0.9-2,2v7H7.1c-1.1,0-2,0.9-2,2v16.6v16.6V70
	v16.6c0,1.1,0.9,2,2,2h21.4H50h21.4h21.4c1.1,0,2-0.9,2-2V70.1V53.5V36.9V20.2C94.9,19.1,94,18.2,92.9,18.2z M24.2,30
	c1.1,0,2-0.9,2-2v-5.8h47.5V28c0,1.1,0.9,2,2,2s2-0.9,2-2v-5.8h13.1v12.6H71.4H50H28.6H9.1V22.2h13.1V28C22.2,29.1,23.1,30,24.2,30z
	 M9.1,72.1h17.4v12.6H9.1V72.1z M90.9,38.9v12.6H73.4V38.9H90.9z M90.9,68.1H73.4V55.5h17.4L90.9,68.1L90.9,68.1z M9.1,55.5h17.4
	v12.6H9.1V55.5z M9.1,38.9h17.4v12.6H9.1V38.9z M48,38.9v12.6H30.6V38.9H48z M69.4,38.9v12.6H52V38.9H69.4z M30.6,55.5H48v12.6H30.6
	V55.5z M52,55.5h17.4v12.6H52V55.5z M30.6,72.1H48v12.6H30.6V72.1z M52,72.1h17.4v12.6H52V72.1z M73.4,72.1h17.4v12.6H73.4V72.1z"/>
</svg>
