<?xml version="1.0" encoding="utf-8"?>
<!-- Generator: Adobe Illustrator 19.0.0, SVG Export Plug-In . SVG Version: 6.00 Build 0)  -->
<svg version="1.1" id="Layer_1" xmlns="http://www.w3.org/2000/svg" xmlns:xlink="http://www.w3.org/1999/xlink" x="0px" y="0px"
	 viewBox="-250.5 372.4 93.4 48.8" style="enable-background:new -250.5 372.4 93.4 48.8;" xml:space="preserve">
<style type="text/css">
	.st0{fill:#00527A;}
</style>
<g>
	<g>
		<path class="st0" d="M-204.7,374.4c5.9,8.5,11.8,16.9,17.6,25.4c1.1,1.6,3.6,0.1,2.5-1.5c-5.8-8.4-11.8-16.9-17.6-25.3
			C-203.3,371.4-205.8,372.9-204.7,374.4L-204.7,374.4z"/>
	</g>
</g>
<g>
	<g>
		<path class="st0" d="M-204.7,372.9c-6.3,8.5-12.7,16.9-19.1,25.4c-1.2,1.5,1.4,2.9,2.5,1.5c6.4-8.5,12.7-16.9,19.2-25.4
			C-201,372.9-203.6,371.4-204.7,372.9L-204.7,372.9z"/>
	</g>
</g>
<g>
	<g>
		<path class="st0" d="M-202,407.5c0-11.3,0-22.6,0-33.8c0-1.8-2.9-1.8-2.9,0c0,11.3,0,22.6,0,33.8
			C-204.9,409.4-202,409.4-202,407.5L-202,407.5z"/>
	</g>
</g>
<g>
	<g>
		<path class="st0" d="M-159.4,384.5c-14.9,7.6-29.8,15.2-44.7,22.8c-1.7,0.9-0.2,3.4,1.5,2.5c14.9-7.6,29.8-15.2,44.7-22.8
			C-156.3,386.2-157.8,383.7-159.4,384.5L-159.4,384.5z"/>
	</g>
</g>
<g>
	<g>
		<path class="st0" d="M-159.9,385.1c-7.5,11.3-14.9,22.7-22.4,33.9c-1.1,1.6,1.5,3,2.5,1.5c7.5-11.3,14.9-22.7,22.4-33.9
			C-156.4,385-158.9,383.5-159.9,385.1L-159.9,385.1z"/>
	</g>
</g>
<g>
	<g>
		<g>
			<path class="st0" d="M-250.3,386.6c7.4,11.3,14.7,22.7,22.1,33.9c1,1.6,3.5,0.1,2.5-1.5c-7.3-11.4-14.7-22.7-22.1-33.9
				C-248.8,383.5-251.3,384.9-250.3,386.6L-250.3,386.6z"/>
		</g>
	</g>
	<g>
		<g>
			<path class="st0" d="M-227,421.2c15.3,0,30.6,0,45.9,0c1.8,0,1.8-2.9,0-2.9c-15.3,0-30.6,0-45.9,0
				C-228.9,418.3-228.9,421.2-227,421.2L-227,421.2z"/>
		</g>
	</g>
	<g>
		<g>
			<path class="st0" d="M-249.8,387.1c22.7,11.3,45.3,22.7,68,33.9c1.7,0.9,3.1-1.7,1.5-2.5c-22.7-11.3-45.3-22.7-68-34
				C-250,383.8-251.5,386.2-249.8,387.1L-249.8,387.1z"/>
		</g>
	</g>
</g>
</svg>
