<?xml version="1.0" encoding="utf-8"?>
<!-- Generator: Adobe Illustrator 19.2.1, SVG Export Plug-In . SVG Version: 6.00 Build 0)  -->
<svg version="1.1" id="Layer_1" xmlns="http://www.w3.org/2000/svg" xmlns:xlink="http://www.w3.org/1999/xlink" x="0px" y="0px"
	 viewBox="0 0 100 100" style="enable-background:new 0 0 100 100;" xml:space="preserve">
	 <style>#Layer_1{fill:#fff;}</style>
<path d="M79.1,82.1c-0.6,0-1.3-0.2-1.8-0.7L18.6,22.6c-1-1-1-2.6,0-3.5c1-1,2.6-1,3.5,0l58.8,58.7c1,1,1,2.6,0,3.5
	C80.4,81.8,79.7,82.1,79.1,82.1z"/>
<path d="M20.3,82.1c-0.6,0-1.3-0.2-1.8-0.7c-1-1-1-2.6,0-3.5l58.8-58.8c1-1,2.6-1,3.5,0c1,1,1,2.6,0,3.5L22.1,81.4
	C21.6,81.8,21,82.1,20.3,82.1z"/>
</svg>
