<?xml version="1.0" encoding="utf-8"?>
<!-- Generator: Adobe Illustrator 19.2.1, SVG Export Plug-In . SVG Version: 6.00 Build 0)  -->
<svg version="1.1" id="Layer_1" xmlns="http://www.w3.org/2000/svg" xmlns:xlink="http://www.w3.org/1999/xlink" x="0px" y="0px"
	 viewBox="0 0 100 98.8" style="enable-background:new 0 0 100 98.8;" xml:space="preserve">
	 <style>
	 	#Layer_1 {
	 		fill: #00527a;
	 	}
	 </style>
<path d="M50,85.8c-19.7,0-35.8-16-35.8-35.8s16-35.8,35.8-35.8s35.8,16,35.8,35.8S69.7,85.8,50,85.8z M50,17.2
	c-18.1,0-32.8,14.7-32.8,32.8S31.9,82.8,50,82.8S82.8,68.1,82.8,50S68.1,17.2,50,17.2z"/>
<path d="M50,69.9C39,69.9,30.1,61,30.1,50S39,30.1,50,30.1S69.9,39,69.9,50S61,69.9,50,69.9z M50,33.1c-9.3,0-16.9,7.6-16.9,16.9
	S40.7,66.9,50,66.9S66.9,59.3,66.9,50S59.3,33.1,50,33.1z"/>
<path d="M32.2,42.1"/>
<path d="M42.8,34.4c-0.4,0-0.8-0.1-1.1-0.4L30.9,23.2c-0.6-0.6-0.6-1.5,0-2.1s1.5-0.6,2.1,0l10.8,10.8c0.6,0.6,0.6,1.5,0,2.1
	C43.5,34.3,43.2,34.4,42.8,34.4z"/>
<path d="M32.9,44.3c-0.4,0-0.8-0.1-1.1-0.4L21.1,33c-0.6-0.6-0.6-1.5,0-2.1s1.5-0.6,2.1,0L34,41.7c0.6,0.6,0.6,1.5,0,2.1
	C33.7,44.1,33.3,44.3,32.9,44.3z"/>
<path d="M77.9,69.5c-0.4,0-0.8-0.1-1.1-0.4L66,58.3c-0.6-0.6-0.6-1.5,0-2.1s1.5-0.6,2.1,0L78.9,67c0.6,0.6,0.6,1.5,0,2.1
	C78.7,69.4,78.3,69.5,77.9,69.5z"/>
<path d="M68,79.4c-0.4,0-0.8-0.1-1.1-0.4L56.2,68.2c-0.6-0.6-0.6-1.5,0-2.1s1.5-0.6,2.1,0l10.8,10.8c0.6,0.6,0.6,1.5,0,2.1
	C68.8,79.2,68.4,79.4,68,79.4z"/>
<path d="M57.9,32.2"/>
<path d="M67.1,44.3c-0.4,0-0.8-0.1-1.1-0.4c-0.6-0.6-0.6-1.5,0-2.1l10.8-10.8c0.6-0.6,1.5-0.6,2.1,0s0.6,1.5,0,2.1L68.2,43.8
	C67.9,44.1,67.5,44.3,67.1,44.3z"/>
<path d="M57.2,34.4c-0.4,0-0.8-0.1-1.1-0.4c-0.6-0.6-0.6-1.5,0-2.1L67,21.1c0.6-0.6,1.5-0.6,2.1,0s0.6,1.5,0,2.1L58.3,34
	C58,34.3,57.6,34.4,57.2,34.4z"/>
<path d="M32,79.4c-0.4,0-0.8-0.1-1.1-0.4c-0.6-0.6-0.6-1.5,0-2.1L41.7,66c0.6-0.6,1.5-0.6,2.1,0s0.6,1.5,0,2.1L33,78.9
	C32.7,79.2,32.4,79.4,32,79.4z"/>
<path d="M22.1,69.5c-0.4,0-0.8-0.1-1.1-0.4c-0.6-0.6-0.6-1.5,0-2.1l10.8-10.8c0.6-0.6,1.5-0.6,2.1,0s0.6,1.5,0,2.1L23.2,69.1
	C22.9,69.4,22.5,69.5,22.1,69.5z"/>
</svg>
