<svg width="14px" height="14px" viewBox="2 0 14 14" version="1.1" xmlns="http://www.w3.org/2000/svg" xmlns:xlink="http://www.w3.org/1999/xlink">
    <!-- Generator: Sketch 3.8.3 (29802) - http://www.bohemiancoding.com/sketch -->
    <desc>Created with Sketch.</desc>
    <defs></defs>
    <g id="1" stroke="none" stroke-width="1" fill="none" fill-rule="evenodd" transform="translate(2.000000, 0.000000)">
        <path d="M7,13.9611111 C3.16944444,13.9611111 0.0388888889,10.85 0.0388888889,7 C0.0388888889,3.15 3.15,0.0388888889 7,0.0388888889 C10.85,0.0388888889 13.9611111,3.15 13.9611111,7 C13.9611111,10.85 10.8305556,13.9611111 7,13.9611111 L7,13.9611111 Z M7,0.622222222 C3.48055556,0.622222222 0.622222222,3.48055556 0.622222222,7 C0.622222222,10.5194444 3.48055556,13.3777778 7,13.3777778 C10.5194444,13.3777778 13.3777778,10.5194444 13.3777778,7 C13.3777778,3.48055556 10.5194444,0.622222222 7,0.622222222 L7,0.622222222 Z" id="Shape" fill="#FFFFFF"></path>
        <path d="M7,10.8694444 C4.86111111,10.8694444 3.13055556,9.13888889 3.13055556,7 C3.13055556,4.86111111 4.86111111,3.13055556 7,3.13055556 C9.13888889,3.13055556 10.8694444,4.86111111 10.8694444,7 C10.8694444,9.13888889 9.13888889,10.8694444 7,10.8694444 L7,10.8694444 Z M7,3.71388889 C5.19166667,3.71388889 3.71388889,5.19166667 3.71388889,7 C3.71388889,8.80833333 5.19166667,10.2861111 7,10.2861111 C8.80833333,10.2861111 10.2861111,8.80833333 10.2861111,7 C10.2861111,5.19166667 8.80833333,3.71388889 7,3.71388889 L7,3.71388889 Z" id="Shape" fill="#FFFFFF"></path>
        <path d="M5.6,3.96666667 C5.52222222,3.96666667 5.44444444,3.94722222 5.38611111,3.88888889 L3.28611111,1.78888889 C3.16944444,1.67222222 3.16944444,1.49722222 3.28611111,1.38055556 C3.40277778,1.26388889 3.57777778,1.26388889 3.69444444,1.38055556 L5.79444444,3.48055556 C5.91111111,3.59722222 5.91111111,3.77222222 5.79444444,3.88888889 C5.73611111,3.94722222 5.67777778,3.96666667 5.6,3.96666667 L5.6,3.96666667 Z" id="Shape" fill="#FFFFFF"></path>
        <path d="M3.675,5.89166667 C3.59722222,5.89166667 3.51944444,5.87222222 3.46111111,5.81388889 L1.38055556,3.69444444 C1.26388889,3.57777778 1.26388889,3.40277778 1.38055556,3.28611111 C1.49722222,3.16944444 1.67222222,3.16944444 1.78888889,3.28611111 L3.88888889,5.38611111 C4.00555556,5.50277778 4.00555556,5.67777778 3.88888889,5.79444444 C3.83055556,5.85277778 3.75277778,5.89166667 3.675,5.89166667 L3.675,5.89166667 Z" id="Shape" fill="#FFFFFF"></path>
        <path d="M12.425,10.7916667 C12.3472222,10.7916667 12.2694444,10.7722222 12.2111111,10.7138889 L10.1111111,8.61388889 C9.99444444,8.49722222 9.99444444,8.32222222 10.1111111,8.20555556 C10.2277778,8.08888889 10.4027778,8.08888889 10.5194444,8.20555556 L12.6194444,10.3055556 C12.7361111,10.4222222 12.7361111,10.5972222 12.6194444,10.7138889 C12.5805556,10.7722222 12.5027778,10.7916667 12.425,10.7916667 L12.425,10.7916667 Z" id="Shape" fill="#FFFFFF"></path>
        <path d="M10.5,12.7166667 C10.4222222,12.7166667 10.3444444,12.6972222 10.2861111,12.6388889 L8.20555556,10.5388889 C8.08888889,10.4222222 8.08888889,10.2472222 8.20555556,10.1305556 C8.32222222,10.0138889 8.49722222,10.0138889 8.61388889,10.1305556 L10.7138889,12.2305556 C10.8305556,12.3472222 10.8305556,12.5222222 10.7138889,12.6388889 C10.6555556,12.6777778 10.5777778,12.7166667 10.5,12.7166667 L10.5,12.7166667 Z" id="Shape" fill="#FFFFFF"></path>
        <path d="M10.325,5.89166667 C10.2472222,5.89166667 10.1694444,5.87222222 10.1111111,5.81388889 C9.99444444,5.69722222 9.99444444,5.52222222 10.1111111,5.40555556 L12.2111111,3.30555556 C12.3277778,3.18888889 12.5027778,3.18888889 12.6194444,3.30555556 C12.7361111,3.42222222 12.7361111,3.59722222 12.6194444,3.71388889 L10.5388889,5.79444444 C10.4805556,5.85277778 10.4027778,5.89166667 10.325,5.89166667 L10.325,5.89166667 Z" id="Shape" fill="#FFFFFF"></path>
        <path d="M8.4,3.96666667 C8.32222222,3.96666667 8.24444444,3.94722222 8.18611111,3.88888889 C8.06944444,3.77222222 8.06944444,3.59722222 8.18611111,3.48055556 L10.3055556,1.38055556 C10.4222222,1.26388889 10.5972222,1.26388889 10.7138889,1.38055556 C10.8305556,1.49722222 10.8305556,1.67222222 10.7138889,1.78888889 L8.61388889,3.88888889 C8.55555556,3.94722222 8.47777778,3.96666667 8.4,3.96666667 L8.4,3.96666667 Z" id="Shape" fill="#FFFFFF"></path>
        <path d="M3.5,12.7166667 C3.42222222,12.7166667 3.34444444,12.6972222 3.28611111,12.6388889 C3.16944444,12.5222222 3.16944444,12.3472222 3.28611111,12.2305556 L5.38611111,10.1111111 C5.50277778,9.99444444 5.67777778,9.99444444 5.79444444,10.1111111 C5.91111111,10.2277778 5.91111111,10.4027778 5.79444444,10.5194444 L3.69444444,12.6194444 C3.63611111,12.6777778 3.57777778,12.7166667 3.5,12.7166667 L3.5,12.7166667 Z" id="Shape" fill="#FFFFFF"></path>
        <path d="M1.575,10.7916667 C1.49722222,10.7916667 1.41944444,10.7722222 1.36111111,10.7138889 C1.24444444,10.5972222 1.24444444,10.4222222 1.36111111,10.3055556 L3.46111111,8.20555556 C3.57777778,8.08888889 3.75277778,8.08888889 3.86944444,8.20555556 C3.98611111,8.32222222 3.98611111,8.49722222 3.86944444,8.61388889 L1.78888889,10.7138889 C1.73055556,10.7722222 1.65277778,10.7916667 1.575,10.7916667 L1.575,10.7916667 Z" id="Shape" fill="#FFFFFF"></path>
    </g>
</svg>