<svg width="66px" height="30px" viewBox="296 116 66 30" version="1.1" xmlns="http://www.w3.org/2000/svg" xmlns:xlink="http://www.w3.org/1999/xlink">
    <!-- Generator: Sketch 3.8.3 (29802) - http://www.bohemiancoding.com/sketch -->
    <desc>Created with Sketch.</desc>
    <defs></defs>
    <path d="M358.91,131.766 C358.875,131.766 358.839,131.778 358.804,131.778 L358.804,131.766 L352.753,131.766 C352.769,131.469 352.792,131.176 352.792,130.875 C352.792,130.575 352.769,130.282 352.753,129.989 L358.906,129.993 C360.585,129.993 361.957,128.625 361.957,126.942 C361.957,125.262 360.589,123.895 358.906,123.895 L351.312,123.887 C349.019,118.996 344.203,116 337.918,116 C334.472,116 331.738,117.176 328.98,118.578 C326.226,117.176 323.488,116 320.042,116 C313.757,116 308.941,118.993 306.648,123.883 L299.156,123.883 L299.156,123.895 C299.121,123.895 299.085,123.883 299.05,123.883 C297.371,123.883 296,125.25 296,126.93 C296,128.61 297.367,129.981 299.05,129.981 C299.085,129.981 299.121,129.973 299.156,129.969 L299.156,129.981 L305.207,129.981 C305.191,130.278 305.168,130.571 305.168,130.871 C305.168,131.172 305.191,131.465 305.207,131.758 L299.054,131.75 C297.375,131.75 296.007,133.118 296.007,134.801 C296.007,136.481 297.375,137.852 299.054,137.852 L306.648,137.86 C308.941,142.75 313.757,145.746 320.046,145.746 C323.492,145.746 326.226,144.571 328.984,143.168 C331.738,144.571 334.476,145.746 337.921,145.746 C344.207,145.746 349.023,142.754 351.316,137.864 L358.808,137.864 L358.808,137.852 C358.843,137.852 358.878,137.864 358.914,137.864 C360.593,137.864 361.964,136.496 361.964,134.813 C361.964,133.133 360.589,131.766 358.91,131.766 L358.91,131.766 Z M358.906,125.391 C359.761,125.391 360.457,126.086 360.457,126.938 C360.457,127.793 359.761,128.489 358.906,128.489 L352.625,128.481 C352.484,127.391 352.246,126.356 351.914,125.383 L358.906,125.391 Z M320.042,117.496 C322.761,117.496 325.062,118.336 327.328,119.43 C327.878,119.696 328.429,119.977 328.98,120.262 C329.203,120.379 329.425,120.493 329.652,120.61 C330.539,121.075 331.453,121.547 332.418,122.012 C333.011,122.297 333.628,122.575 334.269,122.848 C337.128,124.047 340.55,125.036 345.144,125.301 C345.765,126.184 346.207,127.239 346.453,128.454 C339.195,128.27 334.414,126.442 330.625,124.586 C330.054,124.305 329.507,124.028 328.976,123.754 C328.718,123.621 328.46,123.485 328.21,123.356 C327.269,122.864 326.39,122.411 325.539,122.016 C324.894,121.715 324.261,121.454 323.632,121.239 C322.476,120.844 321.312,120.598 320.042,120.598 C316.601,120.598 313.875,121.766 312.093,123.844 C311.519,123.868 310.933,123.883 310.324,123.883 L308.355,123.883 C310.539,119.907 314.699,117.496 320.042,117.496 L320.042,117.496 Z M336.753,122.188 C337.136,122.133 337.519,122.098 337.918,122.098 C340.21,122.098 342.093,122.645 343.523,123.672 C340.894,123.391 338.691,122.852 336.753,122.188 L336.753,122.188 Z M328.98,136.301 C324.859,134.196 319.656,131.946 311.3,131.782 C311.281,131.485 311.269,131.184 311.269,130.871 C311.269,130.559 311.281,130.258 311.304,129.961 C319.66,129.797 324.863,127.547 328.984,125.442 C333.105,127.547 338.308,129.793 346.664,129.961 C346.683,130.258 346.699,130.559 346.699,130.871 C346.699,131.184 346.683,131.485 346.664,131.782 C338.304,131.95 333.101,134.2 328.98,136.301 L328.98,136.301 Z M321.207,122.188 C319.273,122.852 317.07,123.391 314.437,123.672 C315.871,122.649 317.75,122.098 320.042,122.098 C320.437,122.094 320.824,122.133 321.207,122.188 L321.207,122.188 Z M299.05,128.481 C298.195,128.481 297.5,127.786 297.5,126.93 C297.5,126.075 298.195,125.383 299.05,125.383 C299.902,125.383 300.601,126.078 300.601,126.93 C300.601,127.786 299.906,128.481 299.05,128.481 L299.05,128.481 Z M301.664,128.481 C301.933,128.024 302.101,127.5 302.101,126.93 C302.101,126.364 301.933,125.836 301.664,125.383 L310.324,125.383 C310.57,125.383 310.804,125.375 311.046,125.371 C311.652,125.364 312.242,125.34 312.812,125.309 C317.406,125.043 320.824,124.055 323.687,122.856 C324.839,123.301 326.023,123.914 327.332,124.598 C323.542,126.457 318.761,128.282 311.503,128.465 C311.113,128.473 310.726,128.489 310.324,128.489 L301.664,128.489 L301.664,128.481 Z M306.668,130.871 C306.668,130.567 306.691,130.274 306.707,129.981 L309.8,129.981 C309.781,130.274 309.765,130.567 309.765,130.871 C309.765,131.176 309.781,131.469 309.8,131.762 L306.703,131.758 C306.691,131.465 306.668,131.176 306.668,130.871 L306.668,130.871 Z M306.046,136.36 L299.054,136.352 C298.199,136.352 297.507,135.657 297.507,134.801 C297.507,133.95 298.203,133.25 299.054,133.25 L305.339,133.258 L306.855,133.258 L309.98,133.262 L310.328,133.262 C310.73,133.262 311.117,133.274 311.507,133.286 C318.765,133.465 323.55,135.297 327.335,137.153 C326.027,137.836 324.843,138.45 323.691,138.891 C320.832,137.692 317.41,136.704 312.816,136.438 C312.246,136.407 311.66,136.383 311.05,136.375 C310.808,136.371 310.574,136.364 310.328,136.364 L307.648,136.36 L306.046,136.36 Z M321.203,139.559 C320.82,139.61 320.437,139.649 320.042,139.649 C317.75,139.649 315.871,139.102 314.437,138.078 C317.066,138.356 319.269,138.895 321.203,139.559 L321.203,139.559 Z M327.328,142.313 C325.062,143.407 322.761,144.246 320.042,144.246 C314.699,144.246 310.539,141.836 308.355,137.86 L310.324,137.86 C310.933,137.86 311.523,137.875 312.093,137.899 C313.875,139.973 316.601,141.141 320.042,141.141 C321.312,141.141 322.476,140.895 323.632,140.5 C324.265,140.286 324.898,140.024 325.539,139.723 C326.394,139.325 327.269,138.871 328.21,138.379 C328.46,138.246 328.718,138.114 328.976,137.981 C329.507,137.707 330.054,137.426 330.625,137.149 C334.414,135.289 339.199,133.461 346.457,133.282 C346.21,134.496 345.769,135.551 345.148,136.438 C340.554,136.704 337.136,137.692 334.273,138.891 C333.628,139.161 333.015,139.442 332.418,139.727 C331.449,140.192 330.531,140.668 329.644,141.133 C329.421,141.25 329.199,141.364 328.98,141.481 C328.429,141.766 327.878,142.047 327.328,142.313 L327.328,142.313 Z M343.523,138.078 C342.089,139.102 340.21,139.649 337.918,139.649 C337.523,139.649 337.14,139.614 336.757,139.559 C338.691,138.895 340.894,138.356 343.523,138.078 L343.523,138.078 Z M337.918,144.246 C335.199,144.246 332.898,143.407 330.632,142.313 C331.792,141.707 333,141.086 334.328,140.508 C335.484,140.903 336.648,141.149 337.918,141.149 C341.359,141.149 344.085,139.981 345.863,137.907 C346.261,137.442 346.609,136.934 346.91,136.379 C347.41,135.457 347.777,134.418 347.984,133.266 C348.07,132.786 348.125,132.282 348.16,131.766 C348.179,131.473 348.195,131.18 348.195,130.875 C348.195,130.571 348.179,130.278 348.16,129.985 C348.128,129.469 348.074,128.965 347.984,128.485 C347.777,127.336 347.414,126.297 346.914,125.375 C346.613,124.821 346.265,124.313 345.867,123.848 C344.085,121.77 341.359,120.602 337.918,120.602 C336.648,120.602 335.484,120.848 334.328,121.243 C333,120.661 331.792,120.039 330.632,119.434 C332.898,118.34 335.199,117.5 337.918,117.5 C343.261,117.5 347.425,119.907 349.605,123.887 C349.871,124.368 350.113,124.864 350.316,125.387 C350.687,126.348 350.949,127.387 351.109,128.485 C351.179,128.973 351.226,129.473 351.253,129.985 C351.269,130.278 351.292,130.571 351.292,130.875 C351.292,131.18 351.269,131.473 351.253,131.766 C351.226,132.278 351.179,132.778 351.109,133.266 C350.949,134.364 350.691,135.403 350.316,136.368 C350.113,136.891 349.867,137.387 349.605,137.868 C347.421,141.84 343.261,144.246 337.918,144.246 L337.918,144.246 Z M356.296,136.364 L351.91,136.364 C352.238,135.391 352.48,134.356 352.621,133.262 L356.296,133.262 C356.027,133.719 355.859,134.243 355.859,134.813 C355.859,135.379 356.027,135.907 356.296,136.364 L356.296,136.364 Z M358.91,136.364 C358.054,136.364 357.359,135.668 357.359,134.813 C357.359,133.961 358.054,133.262 358.91,133.262 C359.761,133.262 360.46,133.957 360.46,134.813 C360.46,135.664 359.761,136.364 358.91,136.364 L358.91,136.364 Z" id="Page-1" stroke="none" fill="#00527A" fill-rule="evenodd"></path>
</svg>