
<svg width="29px" height="29px" viewBox="0 0 29 29" version="1.1" xmlns="http://www.w3.org/2000/svg" xmlns:xlink="http://www.w3.org/1999/xlink">
    <!-- Generator: Sketch 3.8.3 (29802) - http://www.bohemiancoding.com/sketch -->
    <desc>Created with Sketch.</desc>
    <defs></defs>
    <path d="M21.4836617,24.9403745 L17.8230653,21.3147245 C19.1047511,20.6091245 20.1510901,19.5696245 20.8634912,18.3033245 L24.5240875,21.9289745 C23.6876524,23.0944745 22.6603956,24.1119245 21.4836617,24.9403745 M7.65544879,25.5640745 L11.4241775,21.8344745 C12.2478912,22.1274245 13.125671,22.3164245 14.0511563,22.3164245 C14.9766416,22.3164245 15.8544214,22.1274245 16.6813155,21.8344745 L20.4468638,25.5640745 C18.5545485,26.6508245 16.3887222,27.3154745 14.0511563,27.3154745 C11.7135904,27.3154745 9.54776403,26.6476745 7.65544879,25.5640745 M3.57822501,21.9289745 L7.2388214,18.3033245 C7.95122243,19.5696245 9.00074181,20.6091245 10.2792472,21.3147245 L6.61865085,24.9403745 C5.441917,24.1119245 4.41466016,23.0944745 3.57822501,21.9289745 M2.94851339,8.2327745 L6.71406171,11.9655245 C6.41828806,12.7813745 6.22746636,13.6507745 6.22746636,14.5674245 C6.22746636,15.4840745 6.41828806,16.3534745 6.71406171,17.1724745 L2.94851339,20.9020745 C1.85446894,19.0278245 1.18023225,16.8826745 1.18023225,14.5674245 C1.18023225,12.2521745 1.85446894,10.1070245 2.94851339,8.2327745 M6.61865085,4.1944745 L10.2792472,7.8201245 C9.00074181,8.5257245 7.95122243,9.5652245 7.2388214,10.8315245 L3.57822501,7.2058745 C4.41466016,6.0403745 5.441917,5.0229245 6.61865085,4.1944745 M20.4468638,3.5707745 L16.6813155,7.3003745 C15.8544214,7.0074245 14.9766416,6.8184245 14.0511563,6.8184245 C13.125671,6.8184245 12.2478912,7.0074245 11.4209971,7.3003745 L7.65544879,3.5707745 C9.54776403,2.4871745 11.7135904,1.8193745 14.0511563,1.8193745 C16.3887222,1.8193745 18.5545485,2.4871745 20.4468638,3.5707745 M24.5240875,7.2058745 L20.8634912,10.8315245 C20.1510901,9.5652245 19.1047511,8.5257245 17.8230653,7.8201245 L21.4836617,4.1944745 C22.6603956,5.0229245 23.6876524,6.0403745 24.5240875,7.2058745 M14.0511563,21.1509245 C10.3873795,21.1509245 7.40738057,18.1962245 7.40738057,14.5674245 C7.40738057,10.9386245 10.3873795,7.9870745 14.0511563,7.9870745 C17.714933,7.9870745 20.6981124,10.9386245 20.6981124,14.5674245 C20.6981124,18.1962245 17.714933,21.1509245 14.0511563,21.1509245 M25.1537992,20.9020745 L21.3882509,17.1724745 C21.6840245,16.3534745 21.8748462,15.4840745 21.8748462,14.5674245 C21.8748462,13.6507745 21.6840245,12.7813745 21.3882509,11.9623745 L25.1537992,8.2327745 C26.251024,10.1070245 26.9252607,12.2521745 26.9252607,14.5674245 C26.9252607,16.8826745 26.251024,19.0278245 25.1537992,20.9020745 M14.0511563,0.6507245 C6.30379504,0.6507245 0.000318036175,6.8940245 0.000318036175,14.5674245 C0.000318036175,22.2408245 6.30379504,28.4841245 14.0511563,28.4841245 C21.7985175,28.4841245 28.1019945,22.2408245 28.1019945,14.5674245 C28.1019945,6.8940245 21.7985175,0.6507245 14.0511563,0.6507245" id="Fill-1" stroke="none" fill="#00AAFF" fill-rule="evenodd"></path>
</svg>