<svg width="60px" height="32px" viewBox="455 114 60 32" version="1.1" xmlns="http://www.w3.org/2000/svg" xmlns:xlink="http://www.w3.org/1999/xlink">
    <!-- Generator: Sketch 3.8.3 (29802) - http://www.bohemiancoding.com/sketch -->
    <desc>Created with Sketch.</desc>
    <defs></defs>
    <g id="paper-boat" stroke="none" stroke-width="1" fill="none" fill-rule="evenodd" transform="translate(455.000000, 114.000000)">
        <path d="M29.5580282,1.93768421 C33.2974648,7.30610526 37.0377465,12.6122105 40.7121127,17.9806316 C41.4084507,18.9903158 42.9929577,18.0429474 42.2966197,17.0332632 C38.6188732,11.7271579 34.8160563,6.35873684 31.1425352,1.05263158 C30.4419718,0.0429473684 28.8574648,0.990315789 29.5580282,1.93768421 L29.5580282,1.93768421 Z" id="Fill-1" fill="#00527A"></path>
        <path d="M29.5580282,0.990315789 C25.5633803,6.35873684 21.5095775,11.6648421 17.4523944,17.0332632 C16.6935211,17.9806316 18.3405634,18.8648421 19.0369014,17.9806316 C23.0940845,12.6122105 27.0853521,7.30610526 31.2050704,1.93768421 C31.9014085,0.990315789 30.2543662,0.0429473684 29.5580282,0.990315789 L29.5580282,0.990315789 Z" id="Fill-2" fill="#00527A"></path>
        <path d="M31.2676056,22.8421053 L31.2676056,1.49305263 C31.2676056,0.355368421 29.4287324,0.355368421 29.4287324,1.49305263 L29.4287324,22.8421053 C29.4287324,24.0429474 31.2676056,24.0429474 31.2676056,22.8421053 L31.2676056,22.8421053 Z" id="Fill-3" fill="#00527A"></path>
        <path d="M58.2667606,8.31578947 C48.8222535,13.1149474 39.3785915,17.9141053 29.9374648,22.7174737 C28.8608451,23.2858947 29.8115493,24.8648421 30.888169,24.2964211 C40.3326761,19.4964211 49.776338,14.6972632 59.2174648,9.89473684 C60.2307042,9.38778947 59.28,7.80884211 58.2667606,8.31578947 L58.2667606,8.31578947 Z" id="Fill-4" fill="#00527A"></path>
        <path d="M57.9498592,8.69389474 C53.196338,15.8324211 48.5053521,23.0298947 43.751831,30.1052632 C43.055493,31.1149474 44.7025352,32 45.336338,31.0526316 C50.0898592,23.9141053 54.7808451,16.7174737 59.5343662,9.64126316 C60.168169,8.63157895 58.583662,7.68421053 57.9498592,8.69389474 L57.9498592,8.69389474 Z" id="Fill-5" fill="#00527A"></path>
        <path d="M0.653239437,9.64126316 C5.34422535,16.7797895 9.96929577,23.9772632 14.6602817,31.0526316 C15.2940845,32.0623158 16.8785915,31.1149474 16.2447887,30.1052632 C11.616338,22.9044211 6.92873239,15.7701053 2.23774648,8.69389474 C1.60394366,7.68421053 0.0194366197,8.56926316 0.653239437,9.64126316 L0.653239437,9.64126316 Z" id="Fill-6" fill="#00527A"></path>
        <path d="M15.4225352,31.4930526 L44.5149296,31.4930526 C45.6566197,31.4930526 45.6566197,29.6614737 44.5149296,29.6614737 L15.4225352,29.6614737 C14.2174648,29.6648421 14.2174648,31.4930526 15.4225352,31.4930526 L15.4225352,31.4930526 Z" id="Fill-7" fill="#00527A"></path>
        <path d="M0.970140845,9.95705263 C15.3566197,17.0955789 29.6830986,24.2930526 44.0687324,31.3684211 C45.1453521,31.9376842 46.0335211,30.2964211 45.0194366,29.7894737 C30.6338028,22.6509474 16.3107042,15.4543158 1.92084507,8.31578947 C0.845070423,7.87536842 -0.105633803,9.38778947 0.970140845,9.95705263 L0.970140845,9.95705263 Z" id="Fill-8" fill="#00527A"></path>
    </g>
</svg>