<?xml version="1.0" encoding="utf-8"?>
<!-- Generator: Adobe Illustrator 19.0.0, SVG Export Plug-In . SVG Version: 6.00 Build 0)  -->
<svg version="1.1" id="Layer_1" xmlns="http://www.w3.org/2000/svg" xmlns:xlink="http://www.w3.org/1999/xlink" x="0px" y="0px"
	 viewBox="-4.9 636.9 40.4 60.4" style="enable-background:new -4.9 636.9 40.4 60.4;" xml:space="preserve">
<style type="text/css">
	.st0{fill:none;stroke:#EAF2F6;stroke-width:0.75;stroke-miterlimit:10;}
</style>
<path class="st0" d="M-4.7,690.5c2.7,1.6,5,3.9,6.6,6.6 M8.7,677.1c1.6-2.7,3.9-5,6.6-6.6c2.7,1.6,5,3.9,6.6,6.6
	c-1.6,2.7-3.9,5-6.6,6.6C12.6,682,10.3,679.8,8.7,677.1z M14.3,684.2c-2.5,1.3-5.4,2.1-8.4,2.2c0.1-3,0.9-5.9,2.2-8.4
	C9.7,680.5,11.8,682.6,14.3,684.2z M35.3,663.7c-2.7-1.7-5-3.9-6.6-6.6c1.6-2.7,3.9-5,6.6-6.6 M34.3,664.2c-2.5,1.3-5.4,2.1-8.4,2.2
	c0.1-3,0.9-5.9,2.2-8.4C29.7,660.5,31.8,662.6,34.3,664.2z M36.2,644.2 M35.3,649.3c-1.8-1-3.9-1.8-6-2.2c2.1-0.4,4.2-1.2,6-2.2
	 M36.2,649.9 M28.1,636.1 M35.3,643.7c-2.7-1.6-5-3.9-6.6-6.6 M34.3,644.2c-2.5,1.3-5.4,2.1-8.4,2.2c0.1-3,0.9-5.9,2.2-8.4
	C29.7,640.5,31.8,642.6,34.3,644.2z M34.3,649.9c-2.5,1.6-4.6,3.7-6.2,6.2c-1.3-2.5-2.1-5.4-2.2-8.4
	C28.9,647.8,31.8,648.6,34.3,649.9z M36.2,664.2 M22.4,636.1 M27.5,637.1c-1,1.8-1.8,3.9-2.2,6c-0.4-2.1-1.2-4.2-2.2-6 M24.6,646.4
	c-3-0.1-5.9-0.9-8.4-2.2c2.5-1.6,4.6-3.7,6.2-6.2C23.8,640.6,24.5,643.4,24.6,646.4z M21.3,647.1c-2.1,0.4-4.2,1.2-6,2.2
	c-1.8-1-3.9-1.8-6-2.2c2.1-0.4,4.2-1.2,6-2.2C17.1,645.9,19.1,646.6,21.3,647.1z M24.6,647.7c-0.1,3-0.9,5.9-2.2,8.4
	c-1.6-2.5-3.7-4.6-6.2-6.2C18.8,648.6,21.6,647.8,24.6,647.7z M25.3,651.1c0.4,2.1,1.2,4.2,2.2,6c-1,1.8-1.8,3.9-2.2,6
	c-0.4-2.1-1.2-4.2-2.2-6C24.1,655.2,24.8,653.2,25.3,651.1z M24.6,666.4c-3-0.1-5.9-0.9-8.4-2.2c2.5-1.6,4.6-3.7,6.2-6.2
	C23.8,660.6,24.5,663.4,24.6,666.4z M21.3,667.1c-2.1,0.4-4.2,1.2-6,2.2c-1.8-1-3.9-1.8-6-2.2c2.1-0.4,4.2-1.2,6-2.2
	C17.1,665.9,19.1,666.6,21.3,667.1z M24.6,667.7c-0.1,3-0.9,5.9-2.2,8.4c-1.6-2.5-3.7-4.6-6.2-6.2C18.8,668.6,21.6,667.8,24.6,667.7
	z M25.3,671.1c0.4,2.1,1.2,4.2,2.2,6c-1,1.8-1.8,3.9-2.2,6c-0.4-2.1-1.2-4.2-2.2-6C24.1,675.2,24.8,673.2,25.3,671.1z M25.9,667.7
	c3,0.1,5.9,0.9,8.4,2.2c-2.5,1.6-4.6,3.7-6.2,6.2C26.8,673.6,26,670.7,25.9,667.7z M35.3,669.3c-1.9-1-3.9-1.8-6-2.2
	c2.1-0.4,4.2-1.2,6-2.2 M36.2,669.9 M8.1,636.1 M21.9,637.1c-1.6,2.7-3.9,5-6.6,6.6c-2.7-1.6-5-3.9-6.6-6.6 M14.3,644.2
	c-2.5,1.3-5.4,2.1-8.4,2.2c0.1-3,0.9-5.9,2.2-8.4C9.7,640.5,11.8,642.6,14.3,644.2z M14.3,649.9c-2.5,1.6-4.6,3.7-6.2,6.2
	c-1.3-2.5-2.1-5.4-2.2-8.4C8.9,647.8,11.8,648.6,14.3,649.9z M15.3,650.5c2.7,1.6,5,3.9,6.6,6.6c-1.6,2.7-3.9,5-6.6,6.6
	c-2.7-1.6-5-3.9-6.6-6.6C10.3,654.4,12.6,652.1,15.3,650.5z M14.3,664.2c-2.5,1.3-5.4,2.1-8.4,2.2c0.1-3,0.9-5.9,2.2-8.4
	C9.7,660.5,11.8,662.6,14.3,664.2z M14.3,669.9c-2.5,1.6-4.6,3.7-6.2,6.2c-1.3-2.5-2.1-5.4-2.2-8.4C8.9,667.8,11.8,668.6,14.3,669.9
	z M22.4,678c1.3,2.5,2.1,5.4,2.2,8.4c-3-0.1-5.9-0.9-8.4-2.2C18.7,682.6,20.8,680.5,22.4,678z M28.1,678c1.6,2.5,3.7,4.6,6.2,6.2
	c-2.5,1.3-5.4,2.1-8.4,2.2C26,683.4,26.8,680.6,28.1,678z M35.3,683.7c-2.7-1.7-5-3.9-6.6-6.6c1.6-2.7,3.9-5,6.6-6.6 M36.2,684.2
	 M2.4,636.1 M7.5,637.1c-1,1.8-1.8,3.9-2.2,6c-0.4-2.1-1.2-4.2-2.2-6 M4.6,646.4c-3-0.1-5.9-0.9-8.4-2.2c2.5-1.6,4.6-3.7,6.2-6.2
	C3.8,640.6,4.5,643.4,4.6,646.4z M-4.7,644.8c1.8,1,3.9,1.8,6,2.2c-2.1,0.4-4.2,1.2-6,2.2 M4.6,647.7c-0.1,3-0.9,5.9-2.2,8.4
	c-1.6-2.5-3.7-4.6-6.2-6.2C-1.2,648.6,1.6,647.8,4.6,647.7z M5.3,651.1c0.4,2.1,1.2,4.2,2.2,6c-1,1.8-1.8,3.9-2.2,6
	c-0.4-2.1-1.2-4.2-2.2-6C4.1,655.2,4.8,653.2,5.3,651.1z M4.6,666.4c-3-0.1-5.9-0.9-8.4-2.2c2.5-1.6,4.6-3.7,6.2-6.2
	C3.8,660.6,4.5,663.4,4.6,666.4z M-4.7,664.8c1.8,1,3.9,1.8,6,2.2c-2.1,0.4-4.2,1.2-6,2.2 M4.6,667.7c-0.1,3-0.9,5.9-2.2,8.4
	c-1.6-2.5-3.7-4.6-6.2-6.2C-1.2,668.6,1.6,667.8,4.6,667.7z M5.3,671.1c0.4,2.1,1.2,4.2,2.2,6c-1,1.8-1.8,3.9-2.2,6
	c-0.4-2.1-1.2-4.2-2.2-6C4.1,675.2,4.8,673.2,5.3,671.1z M4.6,686.4c-3-0.1-5.9-0.9-8.4-2.2c2.5-1.6,4.6-3.7,6.2-6.2
	C3.8,680.6,4.5,683.4,4.6,686.4z M-4.7,684.8c1.8,1,3.9,1.8,6,2.2c-2.1,0.4-4.2,1.2-6,2.2 M4.6,687.7c-0.1,3-0.9,5.9-2.2,8.4
	c-1.6-2.5-3.7-4.6-6.2-6.2C-1.2,688.6,1.6,687.8,4.6,687.7z M3,697.1c1-1.8,1.8-3.9,2.2-6c0.4,2.1,1.2,4.2,2.2,6 M5.9,687.7
	c3,0.1,5.9,0.9,8.4,2.2c-2.5,1.6-4.6,3.7-6.2,6.2C6.8,693.6,6,690.7,5.9,687.7z M9.3,687.1c2.1-0.4,4.2-1.2,6-2.2
	c1.8,1,3.9,1.8,6,2.2c-2.1,0.4-4.2,1.2-6,2.2C13.4,688.3,11.4,687.5,9.3,687.1z M24.6,687.7c-0.1,3-0.9,5.9-2.2,8.4
	c-1.6-2.5-3.7-4.6-6.2-6.2C18.8,688.6,21.6,687.8,24.6,687.7z M23,697.1c1-1.8,1.8-3.9,2.2-6c0.4,2.1,1.2,4.2,2.2,6 M25.9,687.7
	c3,0.1,5.9,0.9,8.4,2.2c-2.5,1.6-4.6,3.7-6.2,6.2C26.8,693.6,26,690.7,25.9,687.7z M35.3,689.3c-1.9-1-3.9-1.8-6-2.2
	c2.1-0.4,4.2-1.2,6-2.2 M36.2,689.9 M1.9,637.1c-1.6,2.7-3.9,5-6.6,6.6 M-4.7,650.5c2.7,1.6,5,3.9,6.6,6.6c-1.6,2.7-3.9,5-6.6,6.6
	 M-4.7,670.5c2.7,1.6,5,3.9,6.6,6.6c-1.6,2.7-3.9,5-6.6,6.6 M8.7,697.1c1.6-2.7,3.9-5,6.6-6.6c2.7,1.6,5,3.9,6.6,6.6 M28.7,697.1
	c1.6-2.7,3.9-5,6.6-6.6"/>
</svg>
