
<svg width="50px" height="50px" viewBox="295 181 50 50" version="1.1" xmlns="http://www.w3.org/2000/svg" xmlns:xlink="http://www.w3.org/1999/xlink">
    <!-- Generator: Sketch 3.8.3 (29802) - http://www.bohemiancoding.com/sketch -->
    <desc>Created with Sketch.</desc>
    <defs></defs>
    <path d="M343.79812,204.92692 L340.11732,204.92692 C339.8748,200.06792 337.93292,195.66128 334.86272,192.28148 L337.48228,189.6602 C337.85896,189.28524 337.85896,188.67292 337.48228,188.29108 C337.10732,187.9144 336.495,187.9144 336.11316,188.29108 L333.49188,190.91064 C330.11208,187.84044 325.71232,185.89168 320.85332,185.65604 L320.85332,181.96836 C320.85332,181.43688 320.41644,181 319.88668,181 C319.3552,181 318.91832,181.43688 318.91832,181.96836 L318.91832,185.64916 C314.05416,185.87104 309.63376,187.80604 306.24708,190.87796 L303.6602,188.29108 C303.28524,187.9144 302.67292,187.9144 302.28936,188.29108 C301.9144,188.66604 301.9144,189.27836 302.28936,189.6602 L304.87624,192.24708 C301.7854,195.62688 299.83148,200.049 299.58896,204.92692 L295.96836,204.92692 C295.43688,204.92692 295,205.36208 295,205.89356 C295,206.42504 295.43688,206.8602 295.96836,206.8602 L299.58208,206.8602 C299.80396,211.7192 301.73208,216.12584 304.79024,219.51252 L302.28936,222.01168 C301.9144,222.38836 301.9144,222.99896 302.28936,223.38252 C302.47856,223.57 302.72624,223.6646 302.97564,223.6646 C303.22332,223.6646 303.47272,223.57 303.6602,223.38252 L306.1542,220.89024 C309.55292,224.00688 314.00772,225.97628 318.91832,226.20504 L318.91832,229.81876 C318.91832,230.35024 319.3552,230.78712 319.88668,230.78712 C320.41644,230.78712 320.85332,230.35024 320.85332,229.81876 L320.85332,226.20504 C325.73124,225.96252 330.15336,224.00688 333.53316,220.91604 L336.11316,223.49604 C336.30064,223.68524 336.54832,223.77812 336.79772,223.77812 C337.0454,223.77812 337.2948,223.68524 337.48228,223.49604 C337.85896,223.12108 337.85896,222.50876 337.48228,222.12692 L334.8954,219.54004 C337.96732,216.14648 339.90232,211.73296 340.1242,206.8602 L343.805,206.8602 C344.33648,206.8602 344.77336,206.42504 344.77336,205.89356 C344.77336,205.36208 344.3296,204.92692 343.79812,204.92692 L343.79812,204.92692 Z M333.49188,193.65232 C336.2198,196.67608 337.94668,200.5994 338.18232,204.92692 L336.8648,204.92692 C336.64292,200.96232 335.05708,197.36064 332.57168,194.57252 L333.49188,193.65232 Z M325.745,210.38792 C326.51728,209.38 327.035,208.17772 327.21044,206.8602 L334.9298,206.8602 C334.70792,210.29504 333.34396,213.41168 331.20772,215.84376 L325.745,210.38792 Z M329.83688,217.2146 C327.4048,219.35772 324.28128,220.72168 320.84644,220.94356 L320.84644,213.2242 C322.16396,213.04876 323.37312,212.53104 324.37416,211.75876 L329.83688,217.2146 Z M327.21044,204.92692 C327.035,203.6094 326.51728,202.40024 325.745,201.3992 L331.20084,195.94336 C333.34396,198.37544 334.70792,201.49208 334.9298,204.92692 L327.21044,204.92692 Z M320.84644,187.59792 C325.17396,187.83356 329.09728,189.56044 332.12104,192.28836 L331.20084,193.20856 C328.41272,190.72316 324.81104,189.13732 320.84644,188.91544 L320.84644,187.59792 Z M320.84644,190.84356 C324.28128,191.06544 327.39792,192.4294 329.83,194.57252 L324.37416,200.02836 C323.36624,199.25608 322.16396,198.73836 320.84644,198.56292 L320.84644,190.84356 Z M318.91316,187.59104 L318.91316,188.90856 C314.94856,189.13044 311.34688,190.7094 308.55876,193.20168 L307.60416,192.24708 C310.64168,189.53292 314.57876,187.81292 318.91316,187.59104 L318.91316,187.59104 Z M312.54916,204.92692 L304.8298,204.92692 C305.05168,201.49208 306.41564,198.37544 308.55876,195.94336 L314.0146,201.3992 C313.24232,202.40024 312.7246,203.6094 312.54916,204.92692 L312.54916,204.92692 Z M313.96644,210.32772 L308.50544,215.79044 C306.395,213.36524 305.05168,210.26752 304.8298,206.8602 L312.54916,206.8602 C312.71772,208.1502 313.22168,209.33356 313.96644,210.32772 L313.96644,210.32772 Z M309.9296,194.57252 C312.36168,192.4294 315.47832,191.06544 318.91316,190.84356 L318.91316,198.56292 C317.59564,198.73836 316.38648,199.25608 315.38544,200.02836 L309.9296,194.57252 Z M306.23332,193.61792 L307.18792,194.57252 C304.69564,197.36064 303.11668,200.96232 302.8948,204.92692 L301.5102,204.92692 C301.75272,200.58564 303.49336,196.64856 306.23332,193.61792 L306.23332,193.61792 Z M306.14732,218.14856 C303.43832,215.11104 301.7252,211.18772 301.5102,206.8602 L302.8948,206.8602 C303.11668,210.799 304.675,214.38004 307.1346,217.1544 L306.14732,218.14856 Z M318.91316,224.26316 C314.53232,224.04128 310.56084,222.28688 307.51128,219.5194 L308.49856,218.53212 C311.29356,221.0502 314.91416,222.6498 318.91316,222.87856 L318.91316,224.26316 Z M318.91316,220.94356 C315.45252,220.72168 312.30836,219.33708 309.8694,217.16128 L315.32524,211.70544 C316.33832,212.50524 317.56812,213.04188 318.91832,213.21732 L318.91832,220.94356 L318.91316,220.94356 Z M319.8798,211.35628 C316.86292,211.35628 314.4102,208.90356 314.4102,205.89356 C314.4102,202.87668 316.86292,200.43084 319.8798,200.43084 C322.89668,200.43084 325.3494,202.88356 325.3494,205.89356 C325.3494,208.91044 322.89668,211.35628 319.8798,211.35628 L319.8798,211.35628 Z M320.84644,224.26316 L320.84644,222.87856 C324.81104,222.65668 328.41272,221.07084 331.20084,218.58544 L332.16232,219.54692 C329.13168,222.28688 325.18772,224.02752 320.84644,224.26316 L320.84644,224.26316 Z M333.52628,218.1692 L332.57168,217.2146 C335.06396,214.42648 336.64292,210.8248 336.8648,206.8602 L338.18232,206.8602 C337.96732,211.1946 336.24732,215.13168 333.52628,218.1692 L333.52628,218.1692 Z M319.8798,201.78792 C317.61628,201.78792 315.77416,203.63004 315.77416,205.89356 C315.77416,208.15708 317.61628,209.9992 319.8798,209.9992 C322.13644,209.9992 323.97856,208.15708 323.97856,205.89356 C323.97856,203.63692 322.14332,201.78792 319.8798,201.78792 L319.8798,201.78792 Z M319.8798,208.0642 C318.6844,208.0642 317.70916,207.08896 317.70916,205.89356 C317.70916,204.69816 318.6844,203.72292 319.8798,203.72292 C321.0752,203.72292 322.04356,204.69816 322.04356,205.89356 C322.04356,207.08208 321.0752,208.0642 319.8798,208.0642 L319.8798,208.0642 Z" id="ship-wheel" stroke="none" fill="#00527A" fill-rule="evenodd"></path>
</svg>