<?xml version="1.0" encoding="utf-8"?>
<!-- Generator: Adobe Illustrator 19.2.1, SVG Export Plug-In . SVG Version: 6.00 Build 0)  -->
<svg version="1.1" id="Layer_1" xmlns="http://www.w3.org/2000/svg" xmlns:xlink="http://www.w3.org/1999/xlink" x="0px" y="0px"
	 viewBox="0 0 100 1" style="enable-background:new 0 0 100 1;" xml:space="preserve">
<style type="text/css">
	.st0{fill:none;stroke:#000000;stroke-width:0.5;stroke-miterlimit:10;stroke:rgba(0,82,122,0.3)}
</style>
<path class="st0" d="M5,30.6c0,0,11.2,10,22.5,0s22.5,0,22.5,0s11.2,10,22.5,0s22.5,0,22.5,0"/>
<path class="st0" d="M5,40.6c0,0,11.2,10,22.5,0s22.5,0,22.5,0s11.2,10,22.5,0s22.5,0,22.5,0"/>
<path class="st0" d="M5,10.6c0,0,11.2,10,22.5,0s22.5,0,22.5,0s11.2,10,22.5,0s22.5,0,22.5,0"/>
<path class="st0" d="M5,20.6c0,0,11.2,10,22.5,0s22.5,0,22.5,0s11.2,10,22.5,0s22.5,0,22.5,0"/>
</svg>
