<?xml version="1.0" encoding="utf-8"?>
<!-- Generator: Adobe Illustrator 19.0.0, SVG Export Plug-In . SVG Version: 6.00 Build 0)  -->
<svg version="1.1" id="Layer_1" xmlns="http://www.w3.org/2000/svg" xmlns:xlink="http://www.w3.org/1999/xlink" x="0px" y="0px"
	 viewBox="-224.6 381.2 38.7 38.8" style="enable-background:new -224.6 381.2 38.7 38.8;" xml:space="preserve">
<style type="text/css">
	.st0{fill:#00527A;}
</style>
<path class="st0" d="M-186.5,399.9h-2.9c-0.2-3.8-1.7-7.2-4.1-9.8l2-2c0.3-0.3,0.3-0.8,0-1.1c-0.3-0.3-0.8-0.3-1.1,0l-2,2
	c-2.6-2.4-6-3.9-9.8-4.1V382c0-0.4-0.3-0.8-0.8-0.8s-0.8,0.3-0.8,0.8v2.9c-3.8,0.2-7.2,1.7-9.8,4l-2-2c-0.3-0.3-0.8-0.3-1.1,0
	c-0.3,0.3-0.3,0.8,0,1.1l2,2c-2.4,2.6-3.9,6-4.1,9.8h-2.8c-0.4,0-0.8,0.3-0.8,0.8s0.3,0.8,0.8,0.8h2.8c0.2,3.8,1.7,7.2,4,9.8
	l-1.9,1.9c-0.3,0.3-0.3,0.8,0,1.1c0.1,0.1,0.3,0.2,0.5,0.2s0.4-0.1,0.5-0.2l1.9-1.9c2.6,2.4,6.1,3.9,9.9,4.1v2.8
	c0,0.4,0.3,0.8,0.8,0.8s0.8-0.3,0.8-0.8v-2.8c3.8-0.2,7.2-1.7,9.8-4.1l2,2c0.1,0.1,0.3,0.2,0.5,0.2s0.4-0.1,0.5-0.2
	c0.3-0.3,0.3-0.8,0-1.1l-2-2c2.4-2.6,3.9-6.1,4.1-9.8h2.9c0.4,0,0.8-0.3,0.8-0.8S-186,399.9-186.5,399.9z M-194.5,391.2
	c2.1,2.3,3.5,5.4,3.6,8.7h-1c-0.2-3.1-1.4-5.9-3.3-8L-194.5,391.2z M-200.5,404.2c0.6-0.8,1-1.7,1.1-2.7h6c-0.2,2.7-1.2,5.1-2.9,7
	L-200.5,404.2z M-197.3,409.5c-1.9,1.7-4.3,2.7-7,2.9v-6c1-0.1,2-0.5,2.7-1.1L-197.3,409.5z M-199.3,399.9c-0.1-1-0.5-2-1.1-2.7
	l4.2-4.2c1.7,1.9,2.7,4.3,2.9,7L-199.3,399.9L-199.3,399.9z M-204.2,386.5c3.4,0.2,6.4,1.5,8.7,3.6l-0.7,0.7c-2.2-1.9-5-3.2-8-3.3
	C-204.3,387.5-204.3,386.5-204.2,386.5z M-204.2,389c2.7,0.2,5.1,1.2,7,2.9l-4.2,4.2c-0.8-0.6-1.7-1-2.7-1.1L-204.2,389L-204.2,389z
	 M-205.8,386.5v1c-3.1,0.2-5.9,1.4-8,3.3l-0.7-0.7C-212.2,388-209.1,386.7-205.8,386.5z M-210.7,399.9h-6c0.2-2.7,1.2-5.1,2.9-7
	l4.2,4.2C-210.1,398-210.5,398.9-210.7,399.9z M-209.6,404.1l-4.2,4.2c-1.6-1.9-2.7-4.3-2.8-6.9h6
	C-210.6,402.5-210.2,403.4-209.6,404.1z M-212.7,391.9c1.9-1.7,4.3-2.7,7-2.9v6c-1,0.1-2,0.5-2.7,1.1L-212.7,391.9z M-215.6,391.2
	l0.7,0.7c-1.9,2.2-3.2,5-3.3,8h-1.1C-219.1,396.6-217.7,393.5-215.6,391.2z M-215.6,410.2c-2.1-2.4-3.4-5.4-3.6-8.7h1.1
	c0.2,3.1,1.4,5.8,3.3,8L-215.6,410.2z M-205.8,414.9c-3.4-0.2-6.5-1.5-8.8-3.7l0.8-0.8c2.2,2,5,3.2,8.1,3.4
	C-205.8,413.9-205.8,414.9-205.8,414.9z M-205.8,412.4c-2.7-0.2-5.1-1.2-7-2.9l4.2-4.2c0.8,0.6,1.7,1,2.8,1.2V412.4z M-205,404.9
	c-2.3,0-4.2-1.9-4.2-4.2c0-2.3,1.9-4.2,4.2-4.2s4.2,1.9,4.2,4.2C-200.8,403-202.7,404.9-205,404.9z M-204.2,414.9v-1.1
	c3.1-0.2,5.9-1.4,8-3.3l0.7,0.7C-197.8,413.4-200.9,414.8-204.2,414.9z M-194.4,410.2l-0.7-0.7c1.9-2.2,3.2-5,3.3-8h1
	C-191,404.8-192.3,407.9-194.4,410.2z M-205,397.5c-1.8,0-3.2,1.4-3.2,3.2c0,1.8,1.4,3.2,3.2,3.2s3.2-1.4,3.2-3.2
	C-201.8,398.9-203.2,397.5-205,397.5z M-205,402.4c-0.9,0-1.7-0.8-1.7-1.7s0.8-1.7,1.7-1.7s1.7,0.8,1.7,1.7S-204.1,402.4-205,402.4z
	"/>
</svg>
