<?xml version="1.0" standalone="no"?>
<!DOCTYPE svg PUBLIC "-//W3C//DTD SVG 20010904//EN"
 "http://www.w3.org/TR/2001/REC-SVG-20010904/DTD/svg10.dtd">
<svg version="1.0" xmlns="http://www.w3.org/2000/svg"
 width="512.000000pt" height="512.000000pt" viewBox="0 0 512.000000 512.000000"
 preserveAspectRatio="xMidYMid meet">
<metadata>
Created by potrace 1.15, written by Peter Selinger 2001-2017
</metadata>
<g transform="translate(0.000000,512.000000) scale(0.100000,-0.100000)"
fill="#000000" stroke="none">
<path d="M113 4095 c-23 -14 -52 -42 -65 -63 l-23 -37 -3 -1410 c-2 -998 0
-1421 8 -1448 14 -47 65 -106 107 -123 27 -12 438 -14 2422 -14 1664 0 2398 3
2418 11 40 15 82 57 104 104 18 38 19 99 19 1445 0 1346 -1 1407 -19 1445 -22
47 -64 89 -104 104 -20 8 -756 11 -2425 11 l-2397 0 -42 -25z m1421 -1060
c1011 -867 1020 -875 1040 -856 12 10 464 397 1006 861 542 464 993 850 1003
858 17 15 23 11 82 -49 l64 -64 -714 -610 c-393 -335 -714 -612 -714 -615 0
-3 324 -282 719 -620 l719 -615 -61 -61 -60 -62 -720 617 c-395 339 -723 617
-728 619 -8 3 -445 -363 -587 -491 l-22 -20 -278 238 c-153 131 -288 247 -299
257 -21 19 -22 18 -725 -584 -388 -332 -712 -609 -722 -617 -16 -13 -24 -8
-82 49 l-63 63 711 610 c392 335 712 613 712 617 0 5 -1262 1092 -1424 1227
-5 4 110 123 119 123 3 0 464 -394 1024 -875z"/>
</g>
</svg>
